# xmcd
#
# Track frame offsets:
#	150
#	15966
#	37376
#	51292
#	66058
#	91554
#	106465
#	123040
#	143265
#	164749
#
# Disc length: 2879 seconds
#
# Revision: 1
# Processed by: cddbd v1.5.2PL0 Copyright (c) Steve Scherf et al.
# Submitted via: audiograbber 1.83.01
#
DISCID=790b3d0a
DTITLE=Driftwood - Wayfaring Strangers
DYEAR=2000
DGENRE=Country
TTITLE0=The Smuggler King
TTITLE1=Running Away
TTITLE2=The Back O´ The Northwind
TTITLE3=These Waters
TTITLE4=A Fisherman´s Tale
TTITLE5=Lyonesse
TTITLE6=Jamie´s On The Road Again
TTITLE7=Beacon Lane
TTITLE8=Sit You Down
TTITLE9=Show Must Go On
EXTD=
EXTT0=
EXTT1=
EXTT2=
EXTT3=
EXTT4=
EXTT5=
EXTT6=
EXTT7=
EXTT8=
EXTT9=
PLAYORDER=
